PathFileType  4	(X/Y/Z) C:\simtk\uwmodels\fbknee\data\invivovalid2\exp\aclc01\Files_W_HJCs
DataRate	CameraRate	NumFrames	NumMarkers	Units	OrigDataRate	OrigDataStartFrame	OrigNumFrames
  200.0      200.0        5         42 mm      200.0         387       515
Frame#	Time            R.Shoulder                       R.Clavicle                       R.Bicep                          R.Elbow                          R.Forearm                        R.Wrist                          L.Shoulder                       L.Clavicle                       L.Scapula                        L.Bicep                          L.Elbow                          L.Forearm                        L.Wrist                          R.ASIS                           R.PSIS                           S2                               L.PSIS                           L.ASIS                           R.TH1                            R.TH2                            R.TH3                            R.Knee                           R.SH1                            R.SH2                            R.SH3                            R.SH4                            R.Ankle                          R.Heel                           R.MT5                            L.TH1                            L.TH2                            L.TH3                            L.TH4                            L.Knee                           L.SH1                            L.SH2                            L.SH3                            L.Ankle                          L.Heel                           L.MT5                            R_HJC                            L_HJC                  
                     X1         Y1         Z1         X2         Y2         Z2         X3         Y3         Z3         X4         Y4         Z4         X5         Y5         Z5         X6         Y6         Z6         X7         Y7         Z7         X8         Y8         Z8         X9         Y9         Z9         X10         Y10         Z10         X11         Y11         Z11         X12         Y12         Z12         X13         Y13         Z13         X14         Y14         Z14         X15         Y15         Z15         X16         Y16         Z16         X17         Y17         Z17         X18         Y18         Z18         X19         Y19         Z19         X20         Y20         Z20         X21         Y21         Z21         X22         Y22         Z22         X23         Y23         Z23         X24         Y24         Z24         X25         Y25         Z25         X26         Y26         Z26         X27         Y27         Z27         X28         Y28         Z28         X29         Y29         Z29         X30         Y30         Z30         X31         Y31         Z31         X32         Y32         Z32         X33         Y33         Z33         X34         Y34         Z34         X35         Y35         Z35         X36         Y36         Z36         X37         Y37         Z37         X38         Y38         Z38         X39         Y39         Z39         X40         Y40         Z40         X41         Y41         Z41         X42         Y42         Z42         

	387	1.93000	887.775	30.501	1314.003	942.825	178.049	1295.522	936.306	20.866	1094.382	859.820	-72.075	1011.769	973.746	-46.318	940.825	996.925	-111.308	841.189	896.585	412.956	1294.021	950.473	234.074	1289.102	769.430	306.436	1294.043	886.843	430.287	1115.115	760.278	478.450	1008.089	795.215	483.407	898.632	729.674	520.423	805.707	946.966	60.475	857.740	723.607	164.950	918.164	721.941	216.640	913.640	738.551	270.551	925.066	980.490	318.417	872.723	868.014	4.358	633.686	724.356	56.246	649.672	722.320	67.293	575.406	748.727	38.441	441.072	678.521	31.245	327.103	630.548	53.873	273.833	627.310	98.475	408.463	573.196	114.242	356.750	477.653	114.263	167.252	418.428	182.369	196.554	502.546	87.793	40.694	1039.749	334.177	657.966	1070.414	301.768	588.656	914.456	371.986	589.936	938.497	348.566	519.660	1011.570	334.867	463.523	1061.999	327.817	375.997	952.158	345.780	374.701	954.915	342.124	293.930	1033.743	315.828	71.533	949.698	285.176	38.503	1141.008	318.683	23.427	860.476	110.426	810.376	880.660	305.349	798.265
	388	1.93500	894.183	31.087	1315.127	949.159	178.628	1296.197	942.377	20.633	1095.284	864.983	-71.603	1012.302	980.099	-48.943	941.895	1000.174	-110.615	840.760	903.283	413.881	1294.664	957.320	234.637	1290.364	775.854	306.791	1294.152	895.570	430.230	1115.775	770.965	476.940	1007.558	806.698	482.513	896.936	743.542	520.265	804.296	961.728	61.731	860.376	729.433	164.734	918.576	728.438	216.616	914.089	745.027	270.316	927.011	987.092	319.247	874.248	877.076	2.475	634.149	733.402	55.291	647.704	732.496	65.460	573.520	760.901	36.154	439.895	690.350	29.294	328.247	641.623	52.390	275.784	640.344	96.997	409.658	585.444	112.979	358.828	487.850	112.797	172.214	433.077	183.818	202.247	506.151	88.313	44.124	1044.986	335.432	657.710	1075.380	303.044	587.934	919.281	372.626	590.876	943.078	349.227	520.071	1015.684	336.017	464.213	1064.682	329.266	376.017	953.670	346.401	375.528	956.374	341.637	294.782	1034.025	315.747	71.809	950.622	284.859	38.889	1140.866	318.823	23.073	870.568	110.894	812.539	888.095	306.025	799.662
	389	1.94000	900.322	31.429	1316.377	955.932	178.676	1297.496	948.647	20.416	1096.546	869.649	-70.522	1013.559	984.222	-48.956	941.828	1003.715	-109.957	840.669	910.492	413.399	1295.184	963.949	234.839	1291.209	783.868	308.756	1295.399	903.918	429.969	1116.875	782.298	477.020	1006.867	819.892	482.977	897.282	757.162	520.247	802.520	967.976	62.526	861.510	736.614	163.792	919.158	736.166	216.044	914.389	749.131	272.512	928.848	993.314	319.681	875.166	886.591	1.527	634.768	742.591	53.995	645.974	742.352	63.644	572.063	773.780	34.045	439.170	701.940	27.871	328.952	653.058	51.124	277.094	653.476	95.430	411.750	597.950	111.477	360.973	498.975	113.063	177.603	444.776	179.892	214.306	511.377	87.834	48.665	1050.200	336.719	656.966	1080.005	304.094	587.141	923.896	373.273	591.373	947.551	349.759	520.292	1018.398	336.053	463.733	1067.209	329.565	375.562	956.312	344.608	375.124	958.199	341.409	294.783	1034.025	315.747	71.809	950.693	284.814	38.806	1140.866	318.823	23.073	877.200	111.381	813.534	894.202	306.558	800.658
	390	1.94500	906.438	32.282	1317.447	961.268	178.978	1298.515	954.448	20.326	1097.937	874.417	-69.863	1014.484	988.787	-48.761	942.147	1006.275	-109.192	840.848	918.288	414.196	1296.767	970.197	234.947	1292.376	790.271	308.537	1295.488	913.691	429.870	1117.268	792.692	477.935	1006.513	831.308	483.124	897.433	771.846	520.032	801.826	977.213	63.628	863.498	742.433	163.983	919.344	742.135	216.494	915.478	756.945	272.663	928.993	999.911	320.620	876.650	896.107	0.216	635.871	751.794	52.610	644.568	752.840	62.121	570.615	785.675	31.338	439.217	714.505	26.677	329.375	664.521	49.924	278.570	666.385	94.139	412.942	610.743	110.743	363.067	509.818	111.853	182.622	458.662	180.889	222.328	516.280	88.323	52.417	1055.363	338.270	655.932	1084.829	305.504	585.779	927.913	373.282	591.160	951.356	350.101	519.356	1021.526	336.787	463.771	1069.683	330.717	375.328	957.586	345.217	376.399	959.402	340.614	295.618	1034.136	316.008	71.310	951.060	284.768	38.681	1140.866	318.823	23.073	885.208	111.930	814.971	901.386	307.152	801.720
	391	1.95000	912.419	32.547	1318.258	968.211	179.673	1299.408	960.526	19.742	1098.707	879.622	-69.157	1015.466	993.377	-49.072	942.557	1009.677	-108.782	840.413	924.378	414.524	1297.878	976.735	235.064	1293.594	797.928	308.199	1297.962	922.241	429.993	1118.552	803.433	478.423	1006.422	844.716	480.997	898.168	786.346	519.746	800.444	971.005	64.245	861.184	748.343	164.335	919.879	748.604	215.509	915.280	764.538	269.818	928.539	1006.115	321.475	877.522	905.265	-1.138	636.671	760.850	51.667	643.016	762.691	60.405	568.740	798.149	29.193	439.095	726.579	24.482	331.095	676.275	48.616	280.072	679.671	92.713	414.381	623.500	109.683	365.621	521.178	111.377	187.807	472.856	180.052	228.782	522.461	88.879	57.162	1060.125	339.906	654.222	1089.386	306.528	584.431	931.089	373.315	591.544	955.766	349.912	519.215	1024.324	336.288	463.282	1071.702	331.658	374.450	959.423	343.768	375.851	961.235	340.086	295.873	1034.307	315.823	71.372	951.162	284.901	38.517	1139.744	318.994	22.146	887.141	112.369	812.777	906.059	307.529	802.600
